<?xml version="1.0" encoding="UTF-8"?>
<svg version="1.1" xmlns="http://www.w3.org/2000/svg" width="200" height="200">
<path d="M0 0 C5.44965783 0.66826547 7.43492168 2.92923479 10.875 7.0078125 C17.60269997 16.48100768 25.19411295 30.05887046 24 42 C23.505 42.99 23.505 42.99 23 44 C19.62537285 43.45276317 17.91765 42.9451 15 41 C12.21984591 41.01717912 9.57219487 41.13397861 6.8125 41.375 C6.06291016 41.43171875 5.31332031 41.4884375 4.54101562 41.546875 C2.69323441 41.68810669 0.846488 41.84276167 -1 42 C-1.34598692 45.05207064 -1.34598692 45.05207064 0.71484375 46.7890625 C1.81505859 47.69785156 1.81505859 47.69785156 2.9375 48.625 C3.66839844 49.23601562 4.39929688 49.84703125 5.15234375 50.4765625 C5.76207031 50.97929688 6.37179688 51.48203125 7 52 C7.33 52.33 7.66 52.66 8 53 C9.51928038 53.07179964 11.04167482 53.08392007 12.5625 53.0625 C13.38878906 53.05347656 14.21507812 53.04445312 15.06640625 53.03515625 C15.70449219 53.02355469 16.34257812 53.01195312 17 53 C18.4606285 55.64738916 19 56.89448334 19 60 C19.680625 60.20625 20.36125 60.4125 21.0625 60.625 C26.35522277 63.1024447 30.02262234 66.29747117 32.9375 71.375 C35.3807095 79.71065594 33.66357425 84.52229366 30 92 C26.87024218 98.98176744 24.86623479 106.05303364 23.125 113.484375 C21.43856579 118.75448191 19.16649254 122.73763123 14.25 125.4375 C12.39595329 126.57086881 12.39595329 126.57086881 11 128 C10.74996036 131.54178598 10.74996036 131.54178598 11 135 C8.71329986 138.33022337 7.2163122 138.95371853 3.2355957 139.80541992 C1.71749299 139.96557672 0.1972298 140.10604872 -1.32421875 140.23046875 C-2.14388626 140.31122147 -2.96355377 140.39197418 -3.80805969 140.47517395 C-6.43326556 140.72930436 -9.06000598 140.95838194 -11.6875 141.1875 C-13.40444733 141.35195235 -15.12124702 141.5179538 -16.83789062 141.68554688 C-21.06559685 142.09118775 -25.29539551 142.45542961 -29.52874756 142.79681396 C-31.17032909 142.93178457 -32.81135472 143.07370443 -34.45172119 143.22271729 C-36.76494367 143.4322289 -39.07896302 143.61929632 -41.39453125 143.80078125 C-42.07666183 143.86669968 -42.75879242 143.9326181 -43.46159363 144.00053406 C-48.11999 144.32915038 -51.09114777 143.54786793 -55 141 C-55.44601563 140.00613281 -55.89203125 139.01226562 -56.3515625 137.98828125 C-58.15353293 134.72167608 -58.44933231 134.51111508 -61.7734375 133.41796875 C-63.30318705 132.99275931 -64.83739951 132.58338066 -66.375 132.1875 C-79.36872028 128.3292164 -89.60933515 121.72372604 -97 110 C-102.71847018 99.35131994 -104.72068388 89.29339368 -101.875 77.375 C-98.46266457 66.39008459 -91.11807464 59.53826011 -82 53 C-81.34 53 -80.68 53 -80 53 C-80.350625 51.96875 -80.70125 50.9375 -81.0625 49.875 C-82.01756674 45.92739082 -82.1957881 43.84360462 -81 40 C-79.625 37.75 -79.625 37.75 -77 36 C-75.19233353 35.73539551 -73.37866956 35.51049426 -71.5625 35.3125 C-67.39512497 34.75607017 -67.39512497 34.75607017 -64.3828125 32.0546875 C-63.58526842 30.47523746 -62.82452024 28.87667111 -62.1015625 27.26171875 C-60.35896356 23.68382944 -58.32398022 22.17076259 -55 20 C-51.32088697 18.77362899 -49.7161903 18.70789529 -46.1171875 20.17578125 C-42.73666935 22.15410453 -40.66591452 24.22309973 -38.125 27.1875 C-36.95324219 28.53908203 -36.95324219 28.53908203 -35.7578125 29.91796875 C-35.17773438 30.60503906 -34.59765625 31.29210937 -34 32 C-33.21351074 31.54560547 -33.21351074 31.54560547 -32.41113281 31.08203125 C-30.02908922 29.7124352 -27.63973047 28.35613539 -25.25 27 C-24.425 26.52304687 -23.6 26.04609375 -22.75 25.5546875 C-21.95078125 25.10351562 -21.1515625 24.65234375 -20.328125 24.1875 C-19.5949707 23.76855469 -18.86181641 23.34960938 -18.10644531 22.91796875 C-16 22 -16 22 -12 22 C-11.649375 21.195625 -11.29875 20.39125 -10.9375 19.5625 C-9.46207596 16.55490484 -7.56130907 14.14646771 -5.4375 11.5625 C-2.36678695 7.74030443 -0.91792348 4.79360041 0 0 Z M-12 25 C-11.72694671 31.55327899 -9.18788859 35.06930548 -5 40 C-4.34 39.67 -3.68 39.34 -3 39 C-5.31 34.38 -7.62 29.76 -10 25 C-10.66 25 -11.32 25 -12 25 Z " fill="#BE93E3" transform="translate(131,30)"/>
<path d="M0 0 C5.44965783 0.66826547 7.43492168 2.92923479 10.875 7.0078125 C17.60269997 16.48100768 25.19411295 30.05887046 24 42 C23.505 42.99 23.505 42.99 23 44 C19.62537285 43.45276317 17.91765 42.9451 15 41 C12.21984591 41.01717912 9.57219487 41.13397861 6.8125 41.375 C6.06291016 41.43171875 5.31332031 41.4884375 4.54101562 41.546875 C2.69323441 41.68810669 0.846488 41.84276167 -1 42 C-1.33 42.99 -1.66 43.98 -2 45 C-3.485 45.495 -3.485 45.495 -5 46 C-6.00217064 49.58327753 -6.00217064 49.58327753 -5 53 C-6.6210103 53.69685498 -8.24696066 54.38222861 -9.875 55.0625 C-10.77992187 55.44535156 -11.68484375 55.82820313 -12.6171875 56.22265625 C-15 57 -15 57 -17 56 C-11.85714286 49.42857143 -11.85714286 49.42857143 -8 48 C-12.49083067 49.20485701 -15.43937266 50.88991945 -18.8984375 53.87890625 C-25.62204092 57.46566124 -35.13106529 56.11513525 -42.5 56.0625 C-44.30597656 56.05573242 -44.30597656 56.05573242 -46.1484375 56.04882812 C-49.09901073 56.0371195 -52.04947859 56.02071995 -55 56 C-55 54.68 -55 53.36 -55 52 C-47.08 51.505 -47.08 51.505 -39 51 C-39.66 48.69 -40.32 46.38 -41 44 C-42.70542969 44.10828125 -42.70542969 44.10828125 -44.4453125 44.21875 C-46.00519517 44.31271884 -47.5650918 44.40645607 -49.125 44.5 C-49.86621094 44.54769531 -50.60742188 44.59539062 -51.37109375 44.64453125 C-58.58095192 45.06864055 -65.77963235 45.04674218 -73 45 C-72.6690332 46.11294434 -72.33806641 47.22588867 -71.99707031 48.37255859 C-70.70554282 52.717994 -69.41659429 57.06419086 -68.12860107 61.41067505 C-67.54377117 63.38384116 -66.95852667 65.35688444 -66.37286377 67.32980347 C-63.03223734 78.58914356 -59.73660135 89.85824047 -56.5703125 101.16796875 C-56.29892456 102.13377869 -56.02753662 103.09958862 -55.7479248 104.09466553 C-54.44390178 108.73681006 -53.14983834 113.38132194 -51.87207031 118.03076172 C-51.40212578 119.7094312 -50.93177086 121.38798586 -50.4609375 123.06640625 C-50.1523027 124.21184151 -50.1523027 124.21184151 -49.83743286 125.38041687 C-48.56949052 130.50551751 -48.56949052 130.50551751 -45 134 C-41.93933682 134.20215544 -41.93933682 134.20215544 -38.43359375 133.78515625 C-37.448964 133.69887718 -37.448964 133.69887718 -36.44444275 133.6108551 C-35.02994893 133.48542807 -33.61606672 133.35294523 -32.20281982 133.21417236 C-29.99853777 132.99985783 -27.79342199 132.80862575 -25.58642578 132.62451172 C-21.07681118 132.24653344 -16.56966774 131.84346852 -12.0625 131.4375 C-10.49285218 131.29737317 -8.92319077 131.15739848 -7.35351562 131.01757812 C-3.56885223 130.68013039 0.21562398 130.34065473 4 130 C3.23667932 127.22692362 2.46544882 124.45649225 1.6875 121.6875 C1.43548828 120.78845947 1.18347656 119.88941895 0.92382812 118.96313477 C-0.89610046 112.58240241 -2.86479303 106.26161883 -4.91796875 99.953125 C-5.43001114 98.36892218 -5.9419737 96.78469355 -6.45385742 95.20043945 C-7.22394822 92.81890919 -7.99925682 90.43972901 -8.79092407 88.0652771 C-9.54030469 85.81707636 -10.27156756 83.56365335 -11 81.30859375 C-11.23192551 80.63020447 -11.46385101 79.95181519 -11.70280457 79.25286865 C-12.64394574 76.29045387 -13.18716233 74.52550628 -12.125 71.54321289 C-11.568125 70.77932251 -11.568125 70.77932251 -11 70 C-10.34 71.32 -9.68 72.64 -9 74 C-7.35 73.67 -5.7 73.34 -4 73 C-4.66 73.99 -5.32 74.98 -6 76 C-5.91109089 78.00243485 -5.91109089 78.00243485 -5.3034668 80.12182617 C-5.10175873 80.92002777 -4.90005066 81.71822937 -4.69223022 82.5406189 C-3.60298506 86.41052934 -2.406418 90.23396023 -1.14453125 94.05078125 C-0.59925033 95.73490983 -0.05433897 97.41915811 0.49023438 99.10351562 C1.34196673 101.72288263 2.19691163 104.34108317 3.05834961 106.95727539 C3.8957196 109.50640145 4.72021766 112.05940579 5.54296875 114.61328125 C5.80434128 115.39560623 6.06571381 116.17793121 6.33500671 116.98396301 C7.55973128 120.81434876 8.09785592 123.17154659 7 127 C6.96154557 128.99963028 6.95455719 131.00051633 7 133 C5.68 133.33 4.36 133.66 3 134 C4.98 134 6.96 134 9 134 C8.505 130.535 8.505 130.535 8 127 C8.66 127.33 9.32 127.66 10 128 C10.875 131.3125 10.875 131.3125 11 135 C8.71730832 138.33979487 7.22130273 138.95265077 3.2355957 139.80541992 C1.71749299 139.96557672 0.1972298 140.10604872 -1.32421875 140.23046875 C-2.14388626 140.31122147 -2.96355377 140.39197418 -3.80805969 140.47517395 C-6.43326556 140.72930436 -9.06000598 140.95838194 -11.6875 141.1875 C-13.40444733 141.35195235 -15.12124702 141.5179538 -16.83789062 141.68554688 C-21.06559685 142.09118775 -25.29539551 142.45542961 -29.52874756 142.79681396 C-31.17032909 142.93178457 -32.81135472 143.07370443 -34.45172119 143.22271729 C-36.76494367 143.4322289 -39.07896302 143.61929632 -41.39453125 143.80078125 C-42.07666183 143.86669968 -42.75879242 143.9326181 -43.46159363 144.00053406 C-48.11999 144.32915038 -51.09114777 143.54786793 -55 141 C-55.44601563 140.00613281 -55.89203125 139.01226562 -56.3515625 137.98828125 C-58.15353293 134.72167608 -58.44933231 134.51111508 -61.7734375 133.41796875 C-63.30318705 132.99275931 -64.83739951 132.58338066 -66.375 132.1875 C-79.36872028 128.3292164 -89.60933515 121.72372604 -97 110 C-102.71847018 99.35131994 -104.72068388 89.29339368 -101.875 77.375 C-98.46266457 66.39008459 -91.11807464 59.53826011 -82 53 C-81.34 53 -80.68 53 -80 53 C-80.350625 51.96875 -80.70125 50.9375 -81.0625 49.875 C-82.01756674 45.92739082 -82.1957881 43.84360462 -81 40 C-79.625 37.75 -79.625 37.75 -77 36 C-75.19233353 35.73539551 -73.37866956 35.51049426 -71.5625 35.3125 C-67.39512497 34.75607017 -67.39512497 34.75607017 -64.3828125 32.0546875 C-63.58526842 30.47523746 -62.82452024 28.87667111 -62.1015625 27.26171875 C-60.35896356 23.68382944 -58.32398022 22.17076259 -55 20 C-51.32088697 18.77362899 -49.7161903 18.70789529 -46.1171875 20.17578125 C-42.73666935 22.15410453 -40.66591452 24.22309973 -38.125 27.1875 C-36.95324219 28.53908203 -36.95324219 28.53908203 -35.7578125 29.91796875 C-35.17773438 30.60503906 -34.59765625 31.29210937 -34 32 C-33.21351074 31.54560547 -33.21351074 31.54560547 -32.41113281 31.08203125 C-30.02908922 29.7124352 -27.63973047 28.35613539 -25.25 27 C-24.425 26.52304687 -23.6 26.04609375 -22.75 25.5546875 C-21.95078125 25.10351562 -21.1515625 24.65234375 -20.328125 24.1875 C-19.5949707 23.76855469 -18.86181641 23.34960938 -18.10644531 22.91796875 C-16 22 -16 22 -12 22 C-11.649375 21.195625 -11.29875 20.39125 -10.9375 19.5625 C-9.46207596 16.55490484 -7.56130907 14.14646771 -5.4375 11.5625 C-2.36678695 7.74030443 -0.91792348 4.79360041 0 0 Z M-12 25 C-11.72694671 31.55327899 -9.18788859 35.06930548 -5 40 C-4.34 39.67 -3.68 39.34 -3 39 C-5.31 34.38 -7.62 29.76 -10 25 C-10.66 25 -11.32 25 -12 25 Z " fill="#CBAB6D" transform="translate(131,30)"/>
<path d="M0 0 C0.66 2.31 1.32 4.62 2 7 C-3.36095333 8.12862175 -8.55306686 8.09688221 -14 8 C-14 9.32 -14 10.64 -14 12 C-9.85395998 11.85970858 -5.70822624 11.71175506 -1.5625 11.5625 C-0.39783203 11.52318359 0.76683594 11.48386719 1.96679688 11.44335938 C14.44251238 11.75792208 14.44251238 11.75792208 25.3125 7 C27.8727644 4.76714887 29.62656688 3.59574978 33 3 C33.495 3.99 33.495 3.99 34 5 C33.2575 5.226875 32.515 5.45375 31.75 5.6875 C28.48860409 7.24407532 27.07105025 9.08518854 25 12 C25.54269531 11.7834375 26.08539063 11.566875 26.64453125 11.34375 C27.35996094 11.0653125 28.07539062 10.786875 28.8125 10.5 C29.52019531 10.2215625 30.22789063 9.943125 30.95703125 9.65625 C33 9 33 9 36 9 C36 9.66 36 10.32 36 11 C35.01 11 34.02 11 33 11 C33 11.66 33 12.32 33 13 C34.32 13.33 35.64 13.66 37 14 C35.96875 14.5775 34.9375 15.155 33.875 15.75 C29.34049734 18.92873216 27.63005821 23.19413211 25.45703125 28.16015625 C23.96166426 31.07471873 22.50497101 32.90666752 20 35 C19.34 35 18.68 35 18 35 C17.773125 35.7425 17.54625 36.485 17.3125 37.25 C15.71856952 40.58966387 14.1340198 42.0598925 11 44 C8.875 44.1875 8.875 44.1875 7 43 C5.25 39.4375 5.25 39.4375 4 36 C5.546875 34.9790625 5.546875 34.9790625 7.125 33.9375 C12.80825 29.18023778 14.64199739 21.78897456 17 15 C16.24493164 15.06058594 15.48986328 15.12117188 14.71191406 15.18359375 C11.22497622 15.46058851 7.73751153 15.73032826 4.25 16 C3.06277344 16.09539062 1.87554687 16.19078125 0.65234375 16.2890625 C-6.916468 16.86809728 -14.40974703 17.12563177 -22 17 C-20.69852732 22.33737512 -19.27185263 27.60761352 -17.6875 32.8671875 C-17.24723827 34.34500515 -16.80713914 35.82287125 -16.3671875 37.30078125 C-15.68450545 39.58732535 -15.0004694 41.87343857 -14.31347656 44.15869141 C-11.84087104 52.39420606 -9.48428233 60.51597713 -8 69 C-7.24501221 68.86867676 -6.49002441 68.73735352 -5.7121582 68.60205078 C3.11093052 67.14679238 11.89211515 66.40475258 20.8125 65.875 C22.19860142 65.78829763 23.5846695 65.70106066 24.97070312 65.61328125 C28.31351466 65.40362757 31.65655755 65.19929288 35 65 C34.74387939 64.31470215 34.48775879 63.6294043 34.22387695 62.92333984 C31.99031687 56.87665099 29.93485012 50.82943705 28.1875 44.625 C27.95869141 43.85800781 27.72988281 43.09101562 27.49414062 42.30078125 C26.33344349 38.19042258 25.63584508 35.20126238 27 31 C27.66 31 28.32 31 29 31 C31.28886686 38.02592659 33.56634211 45.05547114 35.8359375 52.08764648 C36.60935896 54.47944587 37.38538376 56.87040506 38.1640625 59.26049805 C39.28290419 62.69622684 40.39234703 66.13486897 41.5 69.57421875 C41.84998047 70.64210129 42.19996094 71.70998383 42.56054688 72.81022644 C42.88087891 73.81088638 43.20121094 74.81154633 43.53125 75.8425293 C43.95760742 77.15824165 43.95760742 77.15824165 44.39257812 78.50053406 C45.02243905 81.09233392 45.11198626 83.34339775 45 86 C41.68376195 87.65811903 37.95246789 87.61586459 34.30078125 87.97265625 C33.43237106 88.06002548 32.56396088 88.14739471 31.66923523 88.2374115 C29.82761527 88.42167983 27.98579565 88.60396172 26.14379883 88.78442383 C23.34072511 89.05972787 20.53852294 89.3428585 17.73632812 89.62695312 C15.94535956 89.8051611 14.15434525 89.98291 12.36328125 90.16015625 C11.53073318 90.24451431 10.69818512 90.32887238 9.84040833 90.41578674 C7.56151913 90.63641487 5.28285294 90.82575745 3 91 C1.10157349 91.14973267 1.10157349 91.14973267 -0.83520508 91.30249023 C-4 91 -4 91 -6.0519104 89.41838074 C-8.49343567 86.38744331 -9.27678688 83.74862684 -10.33422852 80.00341797 C-10.53481873 79.30688614 -10.73540894 78.61035431 -10.94207764 77.89271545 C-11.6001997 75.59589676 -12.23954085 73.29429106 -12.87890625 70.9921875 C-13.33565612 69.38484934 -13.79359641 67.77784903 -14.25267029 66.1711731 C-15.45827129 61.94007185 -16.64812339 57.70469993 -17.83459473 53.46820068 C-19.0362703 49.18716847 -20.25188561 44.91010372 -21.46679688 40.6328125 C-22.83605296 35.80993648 -24.20395499 30.98671835 -25.56092834 26.16036987 C-25.76783767 25.42489992 -25.97474699 24.68942997 -26.18792629 23.93167305 C-26.5859016 22.51687961 -26.9835358 21.10199017 -27.38079166 19.68699455 C-28.68385517 15.06399846 -30.05642173 10.46732101 -31.51060486 5.88967896 C-32 4 -32 4 -32 1 C-21.3051534 0.03711992 -10.72867997 -0.10947633 0 0 Z " fill="#EEF7F7" transform="translate(90,74)"/>
<path d="M0 0 C4.62962963 6.94444444 4.62962963 6.94444444 5 10 C4.67 10.5775 4.34 11.155 4 11.75 C0.82904709 18.88464405 5.97507181 29.76676815 8 37 C8.33 36.34 8.66 35.68 9 35 C9.66 35 10.32 35 11 35 C11.19378738 35.67349991 11.38757477 36.34699982 11.5872345 37.04090881 C13.42130871 43.41212777 15.25974236 49.78207085 17.10298634 56.15064335 C18.05028504 59.42421146 18.99593778 62.69823579 19.93774414 65.97338867 C21.02251547 69.74542698 22.11459924 73.51532913 23.20703125 77.28515625 C23.54152786 78.45208511 23.87602448 79.61901398 24.22065735 80.82130432 C26.57505342 89.1176761 26.57505342 89.1176761 30 97 C33.05181069 98.51973152 33.05181069 98.51973152 36 99 C36 99.66 36 100.32 36 101 C31.6057696 101.4308069 29.67140255 101.52544547 26.125 98.75 C24.23888646 96.30914718 23.33405533 95.00649796 23 92 C22.01 92.33 21.02 92.66 20 93 C5.89969978 89.85588381 -7.25134613 83.33790868 -15.6875 71.2109375 C-22.3220914 60.03481033 -24.93516253 49.19168072 -21.875 36.375 C-18.41342597 25.23157674 -11.02539353 18.80957835 -2 12 C-1.34 11.67 -0.68 11.34 0 11 C0 7.37 0 3.74 0 0 Z " fill="#BE92E3" transform="translate(51,71)"/>
<path d="M0 0 C0.495 0.99 0.495 0.99 1 2 C0.06691929 4.51901981 -0.93077973 6.88474015 -2.0625 9.3125 C-2.35060547 9.97701172 -2.63871094 10.64152344 -2.93554688 11.32617188 C-5.17358654 16.17126416 -7.61982477 18.92733976 -12 22 C-12.66 22 -13.32 22 -14 22 C-13.54803755 23.60597325 -13.08817673 25.20972508 -12.625 26.8125 C-12.36976562 27.70582031 -12.11453125 28.59914063 -11.8515625 29.51953125 C-11.04733339 32.20467896 -11.04733339 32.20467896 -9 35 C-6.42334323 34.62319858 -5.25570731 34.27990468 -3.47265625 32.328125 C-3.00730469 31.64234375 -2.54195312 30.9565625 -2.0625 30.25 C1.12443877 25.75931356 4.38753564 22.07497624 9 19 C9.16604736 19.59425781 9.33209473 20.18851563 9.50317383 20.80078125 C10.26934806 23.53487783 11.04088742 26.26743347 11.8125 29 C12.07353516 29.93457031 12.33457031 30.86914062 12.60351562 31.83203125 C13.81954426 36.12566323 15.07917944 40.33989904 16.69921875 44.5 C18 48 18 48 18 51 C8.97225132 52.20029473 -0.06004609 53.24833662 -9.125 54.125 C-10.45664185 54.25624268 -10.45664185 54.25624268 -11.81518555 54.39013672 C-12.66250244 54.47021973 -13.50981934 54.55030273 -14.3828125 54.6328125 C-15.12934082 54.70387207 -15.87586914 54.77493164 -16.64501953 54.84814453 C-19.43438225 55.02801013 -22.20564255 55.02365114 -25 55 C-27.17752974 48.02576671 -29.29846526 41.03917482 -31.32421875 34.01953125 C-31.51815216 33.34751678 -31.71208557 32.67550232 -31.91189575 31.98312378 C-32.70921041 29.21633676 -33.50482217 26.44906477 -34.29907227 23.68139648 C-34.8891287 21.62695952 -35.48153196 19.57321065 -36.07421875 17.51953125 C-36.42057373 16.31401611 -36.76692871 15.10850098 -37.1237793 13.86645508 C-37.88553227 11.09042534 -37.88553227 11.09042534 -39 9 C-39 7.02 -39 5.04 -39 3 C-26.13 2.01 -13.26 1.02 0 0 Z " fill="#809AC8" transform="translate(107,88)"/>
<path d="M0 0 C-0.19464844 0.55171875 -0.38929687 1.1034375 -0.58984375 1.671875 C-1.10811104 4.61365886 -0.49113726 6.42694273 0.4375 9.25 C0.72496094 10.14203125 1.01242188 11.0340625 1.30859375 11.953125 C1.65083984 12.96632813 1.65083984 12.96632813 2 14 C1.01 13.34 0.02 12.68 -1 12 C-1.6875 8.375 -1.6875 8.375 -2 5 C-2.66 5 -3.32 5 -4 5 C-4 6.32 -4 7.64 -4 9 C-7.04086131 9.34263226 -10.08232836 9.67415673 -13.125 10 C-14.37990234 10.14308594 -14.37990234 10.14308594 -15.66015625 10.2890625 C-23.11505391 11.07378857 -30.50911683 11.09825899 -38 11 C-37.5035498 12.6694165 -37.5035498 12.6694165 -36.99707031 14.37255859 C-35.70554282 18.717994 -34.41659429 23.06419086 -33.12860107 27.41067505 C-32.54377117 29.38384116 -31.95852667 31.35688444 -31.37286377 33.32980347 C-28.03223734 44.58914356 -24.73660135 55.85824047 -21.5703125 67.16796875 C-21.29892456 68.13377869 -21.02753662 69.09958862 -20.7479248 70.09466553 C-19.44390178 74.73681006 -18.14983834 79.38132194 -16.87207031 84.03076172 C-16.40212578 85.7094312 -15.93177086 87.38798586 -15.4609375 89.06640625 C-15.1523027 90.21184151 -15.1523027 90.21184151 -14.83743286 91.38041687 C-13.56949052 96.50551751 -13.56949052 96.50551751 -10 100 C-6.93933682 100.20215544 -6.93933682 100.20215544 -3.43359375 99.78515625 C-2.448964 99.69887718 -2.448964 99.69887718 -1.44444275 99.6108551 C-0.02994893 99.48542807 1.38393328 99.35294523 2.79718018 99.21417236 C5.00146223 98.99985783 7.20657801 98.80862575 9.41357422 98.62451172 C13.92318882 98.24653344 18.43033226 97.84346852 22.9375 97.4375 C24.50714782 97.29737317 26.07680923 97.15739848 27.64648438 97.01757812 C31.43114777 96.68013039 35.21562398 96.34065473 39 96 C38.23667932 93.22692362 37.46544882 90.45649225 36.6875 87.6875 C36.43548828 86.78845947 36.18347656 85.88941895 35.92382812 84.96313477 C34.10389954 78.58240241 32.13520697 72.26161883 30.08203125 65.953125 C29.56998886 64.36892218 29.0580263 62.78469355 28.54614258 61.20043945 C27.77605178 58.81890919 27.00074318 56.43972901 26.20907593 54.0652771 C25.45969531 51.81707636 24.72843244 49.56365335 24 47.30859375 C23.76807449 46.63020447 23.53614899 45.95181519 23.29719543 45.25286865 C22.35605426 42.29045387 21.81283767 40.52550628 22.875 37.54321289 C23.431875 36.77932251 23.431875 36.77932251 24 36 C24.99 37.98 24.99 37.98 26 40 C27.65 39.67 29.3 39.34 31 39 C30.34 39.99 29.68 40.98 29 42 C29.08890911 44.00243485 29.08890911 44.00243485 29.6965332 46.12182617 C29.89824127 46.92002777 30.09994934 47.71822937 30.30776978 48.5406189 C31.39701494 52.41052934 32.593582 56.23396023 33.85546875 60.05078125 C34.40074967 61.73490983 34.94566103 63.41915811 35.49023438 65.10351562 C36.34196673 67.72288263 37.19691163 70.34108317 38.05834961 72.95727539 C38.8957196 75.50640145 39.72021766 78.05940579 40.54296875 80.61328125 C40.80434128 81.39560623 41.06571381 82.17793121 41.33500671 82.98396301 C42.55973128 86.81434876 43.09785592 89.17154659 42 93 C41.96154557 94.99963028 41.95455719 97.00051633 42 99 C40.68 99.33 39.36 99.66 38 100 C39.98 100 41.96 100 44 100 C43.505 96.535 43.505 96.535 43 93 C43.66 93.33 44.32 93.66 45 94 C45.875 97.3125 45.875 97.3125 46 101 C43.71730832 104.33979487 42.22130273 104.95265077 38.2355957 105.80541992 C36.71749299 105.96557672 35.1972298 106.10604872 33.67578125 106.23046875 C32.85611374 106.31122147 32.03644623 106.39197418 31.19194031 106.47517395 C28.56673444 106.72930436 25.93999402 106.95838194 23.3125 107.1875 C21.59555267 107.35195235 19.87875298 107.5179538 18.16210938 107.68554688 C13.93440315 108.09118775 9.70460449 108.45542961 5.47125244 108.79681396 C3.82967091 108.93178457 2.18864528 109.07370443 0.54827881 109.22271729 C-1.76494367 109.4322289 -4.07896302 109.61929632 -6.39453125 109.80078125 C-7.07666183 109.86669968 -7.75879242 109.9326181 -8.46159363 110.00053406 C-13.12999437 110.32985612 -16.06647932 109.51365821 -20 107 C-22.72120171 102.91819743 -23.34739006 99.86346089 -23 95 C-21.66481224 97.56766877 -20.76161511 99.81331317 -19.9375 102.625 C-18.40394465 106.09789823 -18.40394465 106.09789823 -15.8046875 106.89453125 C-13.5341055 107.38921918 -11.31082323 107.76261984 -9 108 C-9 107.34 -9 106.68 -9 106 C-9.928125 105.9175 -10.85625 105.835 -11.8125 105.75 C-15 105 -15 105 -16.58613586 103.29981995 C-18.17672196 100.7125405 -18.97926602 98.3741957 -19.80932617 95.45288086 C-20.28948433 93.78611549 -20.28948433 93.78611549 -20.77934265 92.0856781 C-21.11383926 90.89080276 -21.44833588 89.69592743 -21.79296875 88.46484375 C-22.14386063 87.23464005 -22.4947525 86.00443634 -22.85627747 84.73695374 C-23.59691474 82.13852545 -24.33180581 79.53856589 -25.06225586 76.93725586 C-25.99853851 73.60355151 -26.94582981 70.27310502 -27.89701366 66.94362545 C-28.8043633 63.7644811 -29.70485464 60.58340166 -30.60546875 57.40234375 C-30.94603806 56.20544418 -31.28660736 55.00854462 -31.63749695 53.77537537 C-31.9481459 52.66735062 -32.25879486 51.55932587 -32.57885742 50.41772461 C-32.99164192 48.95356361 -32.99164192 48.95356361 -33.4127655 47.45982361 C-34 45 -34 45 -34 42 C-34.66 42 -35.32 42 -36 42 C-36 43.65 -36 45.3 -36 47 C-38.5960877 43.10586846 -39.49201585 39.23902597 -40.6875 34.75 C-41.04424805 33.49896484 -41.04424805 33.49896484 -41.40820312 32.22265625 C-42.80134692 27.01777297 -43.12671305 23.27165138 -42 18 C-42 15.11604263 -43.05905327 12.70522185 -44 10 C-44 12.64 -44 15.28 -44 18 C-46.48269777 15.51730223 -46.68976797 13.46344993 -47.01953125 10.03515625 C-46.98872601 6.82525073 -46.18731074 5.32401766 -44 3 C-38.71673059 1.12031076 -33.76429825 0.59663679 -28.1875 0.375 C-27.3730542 0.33705322 -26.5586084 0.29910645 -25.71948242 0.26000977 C-17.14732953 -0.10337766 -8.57770327 -0.09223337 0 0 Z " fill="#62637E" transform="translate(96,64)"/>
<path d="M0 0 C4.7371558 3.39541803 8.43772793 7.40862711 12 12 C12.845625 11.51789062 13.69125 11.03578125 14.5625 10.5390625 C20.60678763 7.17349325 26.11811306 4.21445064 33 3 C33.12375 4.216875 33.2475 5.43375 33.375 6.6875 C33.69236704 9.3384482 34.08210058 11.19612916 35.125 13.6875 C36.2563198 16.6774166 36.06275336 17.99039243 35 21 C30.25173739 24.52000541 25.03623454 26.90147252 19.125 27.1875 C15.07816236 25.6497017 13.00369684 24.14673002 10 21 C9.0625 18.25 9.0625 18.25 9 16 C9.33 15.67 9.66 15.34 10 15 C0.1 15 -9.8 15 -20 15 C-10.86065574 -3.27868852 -10.86065574 -3.27868852 0 0 Z " fill="#DFCC66" transform="translate(85,50)"/>
<path d="M0 0 C0.99 0.33 1.98 0.66 3 1 C2.01 1.66 1.02 2.32 0 3 C-1.68615782 4.64694485 -3.35570171 6.31126121 -5 8 C-2.8692804 8.12651879 -2.8692804 8.12651879 -0.5625 7 C2 6 2 6 5 6 C5 6.66 5 7.32 5 8 C4.01 8 3.02 8 2 8 C2 8.66 2 9.32 2 10 C3.32 10.33 4.64 10.66 6 11 C4.96875 11.5775 3.9375 12.155 2.875 12.75 C-1.65950266 15.92873216 -3.36994179 20.19413211 -5.54296875 25.16015625 C-7.03833574 28.07471873 -8.49502899 29.90666752 -11 32 C-11.66 32 -12.32 32 -13 32 C-13.226875 32.7425 -13.45375 33.485 -13.6875 34.25 C-15.28143048 37.58966387 -16.8659802 39.0598925 -20 41 C-22.125 41.1875 -22.125 41.1875 -24 40 C-25.75 36.4375 -25.75 36.4375 -27 33 C-25.96875 32.29875 -24.9375 31.5975 -23.875 30.875 C-17.90451938 25.82491801 -15.44750564 17.56724383 -13.14453125 10.30078125 C-11.63883302 7.27396808 -9.80774897 6.09462577 -7 4.25 C-6.113125 3.65703125 -5.22625 3.0640625 -4.3125 2.453125 C-2 1 -2 1 0 0 Z " fill="#F9C9A6" transform="translate(121,77)"/>
<path d="M0 0 C0.598125 0.639375 1.19625 1.27875 1.8125 1.9375 C3.90810337 4.20310389 3.90810337 4.20310389 7 5 C7 5.99 7 6.98 7 8 C6.34 8 5.68 8 5 8 C3.95785309 12.61507774 3.95785309 12.61507774 5 17 C3.3789897 17.69685498 1.75303934 18.38222861 0.125 19.0625 C-0.77992187 19.44535156 -1.68484375 19.82820313 -2.6171875 20.22265625 C-5 21 -5 21 -7 20 C-1.85714286 13.42857143 -1.85714286 13.42857143 2 12 C-2.49083067 13.20485701 -5.43937266 14.88991945 -8.8984375 17.87890625 C-15.62204092 21.46566124 -25.13106529 20.11513525 -32.5 20.0625 C-34.30597656 20.05573242 -34.30597656 20.05573242 -36.1484375 20.04882812 C-39.09901073 20.0371195 -42.04947859 20.02071995 -45 20 C-45 18.68 -45 17.36 -45 16 C-37.08 15.505 -37.08 15.505 -29 15 C-29.66 12.69 -30.32 10.38 -31 8 C-32.98 8 -34.96 8 -37 8 C-37 7.67 -37 7.34 -37 7 C-34.36 7 -31.72 7 -29 7 C-29 5.68 -29 4.36 -29 3 C-28.34 3 -27.68 3 -27 3 C-26.01 5.64 -25.02 8.28 -24 11 C-24.33 9.35 -24.66 7.7 -25 6 C-23.989375 6.680625 -22.97875 7.36125 -21.9375 8.0625 C-19.14568401 9.62591695 -18.00226619 9.99995724 -14.6875 10.0625 C-9.8536111 8.66968456 -5.1239954 6.93103888 -1 4 C-0.14979935 1.92520359 -0.14979935 1.92520359 0 0 Z " fill="#CBA250" transform="translate(121,66)"/>
<path d="M0 0 C5.44965783 0.66826547 7.43492168 2.92923479 10.875 7.0078125 C17.60269997 16.48100768 25.19411295 30.05887046 24 42 C23.67 42.66 23.34 43.32 23 44 C19.62537285 43.45276317 17.91765 42.9451 15 41 C12.25481679 40.75812349 12.25481679 40.75812349 9.3125 40.875 C8.31863281 40.89304688 7.32476562 40.91109375 6.30078125 40.9296875 C5.54152344 40.95289063 4.78226563 40.97609375 4 41 C8.31721798 38.54280791 12.12574212 38.40155909 17 39 C20.0625 40.5 20.0625 40.5 22 42 C22 41.34 22 40.68 22 40 C21.39671875 39.88785156 20.7934375 39.77570313 20.171875 39.66015625 C15.02885986 38.09690165 12.35654701 32.76673481 9.94140625 28.29296875 C0.03150271 9.21782339 0.03150271 9.21782339 2 2 C1.34 1.34 0.68 0.68 0 0 Z " fill="#A07A44" transform="translate(131,30)"/>
<path d="M0 0 C4.25092879 3.06743157 8.14614783 6.57343672 11 11 C11 11.99 11 12.98 11 14 C0.6510926 14.65043638 -9.6265501 15.16494885 -20 15 C-17.20216784 8.62440901 -14.84291407 3.937616 -9 0 C-5.26121635 -1.24626122 -3.78878042 -1.14378277 0 0 Z " fill="#BE92E3" transform="translate(85,50)"/>
<path d="M0 0 C0.66 0 1.32 0 2 0 C2.19378738 0.67349991 2.38757477 1.34699982 2.5872345 2.04090881 C4.42130871 8.41212777 6.25974236 14.78207085 8.10298634 21.15064335 C9.05028504 24.42421146 9.99593778 27.69823579 10.93774414 30.97338867 C12.02251547 34.74542698 13.11459924 38.51532913 14.20703125 42.28515625 C14.54152786 43.45208511 14.87602448 44.61901398 15.22065735 45.82130432 C17.57505342 54.1176761 17.57505342 54.1176761 21 62 C24.05181069 63.51973152 24.05181069 63.51973152 27 64 C27 64.66 27 65.32 27 66 C22.6057696 66.4308069 20.67140255 66.52544547 17.125 63.75 C15.23888646 61.30914718 14.33405533 60.00649796 14 57 C12.515 57.495 12.515 57.495 11 58 C8.3125 57.5625 8.3125 57.5625 6 57 C6 55.35 6 53.7 6 52 C7.32 52 8.64 52 10 52 C9.35054056 41.46226334 9.35054056 41.46226334 8 31 C7.34 31 6.68 31 6 31 C4.98051483 27.52624889 3.9880912 24.04529893 3 20.5625 C2.71382812 19.58861328 2.42765625 18.61472656 2.1328125 17.61132812 C0.42346098 11.5268507 -0.31363273 6.31839279 0 0 Z " fill="#A1BCCD" transform="translate(60,106)"/>
<path d="M0 0 C3.33608336 5.00412503 4.49071019 11.15038038 3.625 17.125 C3.41875 18.07375 3.2125 19.0225 3 20 C0.69 20.33 -1.62 20.66 -4 21 C-4.66 20.01 -5.32 19.02 -6 18 C-6.15082031 18.90492187 -6.15082031 18.90492187 -6.3046875 19.828125 C-7.13234215 22.41338334 -7.99057565 23.12286036 -10.125 24.75 C-15.88387083 29.42095273 -20.44892729 35.17462693 -25 41 C-27.54620938 40.6362558 -28.68180393 40.42033309 -30.265625 38.328125 C-33.54945055 31.3956044 -33.54945055 31.3956044 -33 27 C-30.65941363 29.12780579 -29.29299694 31.11562221 -28 34 C-23.71657993 33.52406444 -21.84426611 31.05238315 -19 28 C-18.195625 27.278125 -17.39125 26.55625 -16.5625 25.8125 C-12.35655165 21.19621523 -9.52823212 15.72870387 -6.48828125 10.30078125 C-4.71166446 7.55425292 -2.87951346 6.47866907 0 5 C-0.99 4.67 -1.98 4.34 -3 4 C-3 3.34 -3 2.68 -3 2 C-2.01 2 -1.02 2 0 2 C0 1.34 0 0.68 0 0 Z " fill="#C4876A" transform="translate(126,83)"/>
<path d="M0 0 C0.07476562 0.73863281 0.14953125 1.47726563 0.2265625 2.23828125 C1.2682477 10.27559744 3.77866816 16.13264383 8 23 C8.33 23.66 8.66 24.32 9 25 C5.95678856 25.72930993 3.13297479 26.2252808 0 26 C-2.48603591 24.25750451 -3.37911196 22.66662226 -5 20 C-5 19.34 -5 18.68 -5 18 C-5.99 17.67 -6.98 17.34 -8 17 C-8.8800448 13.58295104 -9.39878534 10.52260383 -9 7 C-7.11298147 4.50299177 -3.43475923 0 0 0 Z " fill="#E1CD66" transform="translate(130,40)"/>
<path d="M0 0 C2.375 -0.125 2.375 -0.125 5 0 C5.66 0.66 6.32 1.32 7 2 C7.66 1.67 8.32 1.34 9 1 C9 1.99 9 2.98 9 4 C13.1668836 3.85999343 17.33344499 3.71194282 21.5 3.5625 C23.25957031 3.50352539 23.25957031 3.50352539 25.0546875 3.44335938 C31.09570769 3.22276032 37.0180985 2.88099787 43 2 C41.86547852 4.44213867 41.86547852 4.44213867 40 7 C37.33959961 7.7512207 37.33959961 7.7512207 34.15234375 7.92578125 C32.40727539 8.03696289 32.40727539 8.03696289 30.62695312 8.15039062 C28.80067383 8.23063477 28.80067383 8.23063477 26.9375 8.3125 C25.74705078 8.38533203 24.55660156 8.45816406 23.33007812 8.53320312 C4.03078339 9.64723608 4.03078339 9.64723608 0.3125 7.3125 C-1 5 -1 5 -0.75 2.25 C-0.5025 1.5075 -0.255 0.765 0 0 Z " fill="#E6F0F2" transform="translate(67,82)"/>
<path d="M0 0 C-0.33 3.3 -0.66 6.6 -1 10 C-2.32 10.33 -3.64 10.66 -5 11 C-4.67 11.66 -4.34 12.32 -4 13 C-3.01 13.33 -2.02 13.66 -1 14 C2 15 2 15 3 17 C3.33 16.34 3.66 15.68 4 15 C4.66 15 5.32 15 6 15 C6.33 16.98 6.66 18.96 7 21 C0.71428571 23.42857143 0.71428571 23.42857143 -3 22 C-2.67 23.65 -2.34 25.3 -2 27 C-2.66 27 -3.32 27 -4 27 C-5.03774122 23.92209798 -6.05216917 20.83699754 -7.0625 17.75 C-7.35705078 16.87730469 -7.65160156 16.00460938 -7.95507812 15.10546875 C-8.22900391 14.26113281 -8.50292969 13.41679688 -8.78515625 12.546875 C-9.04176025 11.77182617 -9.29836426 10.99677734 -9.56274414 10.19824219 C-10.05729194 7.71197284 -9.91316056 6.35298979 -9 4 C-5.70934836 0.79828489 -4.70781138 0 0 0 Z " fill="#BD90E4" transform="translate(134,101)"/>
<path d="M0 0 C0.66 0 1.32 0 2 0 C2.391875 1.19625 2.78375 2.3925 3.1875 3.625 C4.30958201 6.67296317 5.53363555 8.88328356 7.6875 11.3125 C10 14 10 14 10 17 C1.42 17 -7.16 17 -16 17 C-16 15.68 -16 14.36 -16 13 C-8.08 12.505 -8.08 12.505 0 12 C-0.66 9.69 -1.32 7.38 -2 5 C-3.98 5 -5.96 5 -8 5 C-8 4.67 -8 4.34 -8 4 C-5.36 4 -2.72 4 0 4 C0 2.68 0 1.36 0 0 Z " fill="#94A6B6" transform="translate(92,69)"/>
<path d="M0 0 C3.62351253 1.20783751 4.15215236 2.29653142 6.1875 5.4375 C6.71730469 6.24058594 7.24710938 7.04367188 7.79296875 7.87109375 C9 10 9 10 9 12 C6.79344925 12.50780894 4.58466395 13.00591365 2.375 13.5 C1.14523438 13.7784375 -0.08453125 14.056875 -1.3515625 14.34375 C-4.67152228 14.94091621 -7.63908451 15.12409534 -11 15 C-7.63737574 9.75430616 -3.86435321 4.88471613 0 0 Z " fill="#F85F78" transform="translate(163,33)"/>
<path d="M0 0 C2.64 1.32 5.28 2.64 8 4 C6.3734847 8.75940556 3.77746363 12.66614359 1 16.8125 C0.54882812 17.50537109 0.09765625 18.19824219 -0.3671875 18.91210938 C-1.52234147 20.64654913 -2.75538259 22.32859656 -4 24 C-4.66 24 -5.32 24 -6 24 C-5.38260016 20.9359174 -4.75473209 17.87406982 -4.125 14.8125 C-3.95097656 13.94818359 -3.77695313 13.08386719 -3.59765625 12.19335938 C-2.71915731 7.94728116 -1.82185046 3.96375572 0 0 Z " fill="#F7617A" transform="translate(153,15)"/>
<path d="M0 0 C0 1.32 0 2.64 0 4 C-11.05842489 5.32040894 -21.84744013 6.32748137 -33 6 C-32.67 4.68 -32.34 3.36 -32 2 C-27.79196298 1.66285491 -23.58352782 1.33095755 -19.375 1 C-18.18519531 0.90460938 -16.99539062 0.80921875 -15.76953125 0.7109375 C-14.61582031 0.62070313 -13.46210937 0.53046875 -12.2734375 0.4375 C-10.68668213 0.31181641 -10.68668213 0.31181641 -9.06787109 0.18359375 C-6.03692697 0.00220986 -3.03554529 -0.03182747 0 0 Z " fill="#627D88" transform="translate(91,69)"/>
<path d="M0 0 C-0.19464844 0.55171875 -0.38929687 1.1034375 -0.58984375 1.671875 C-1.10811104 4.61365886 -0.49113726 6.42694273 0.4375 9.25 C0.72496094 10.14203125 1.01242188 11.0340625 1.30859375 11.953125 C1.65083984 12.96632813 1.65083984 12.96632813 2 14 C-1.86107457 11.42595029 -1.94319692 9.38979741 -3 5 C-5.475 4.505 -5.475 4.505 -8 4 C-8 3.34 -8 2.68 -8 2 C-10.31 2.33 -12.62 2.66 -15 3 C-14.67 3.66 -14.34 4.32 -14 5 C-24.395 5.495 -24.395 5.495 -35 6 C-35 5.01 -35 4.02 -35 3 C-33.68 3 -32.36 3 -31 3 C-31 2.34 -31 1.68 -31 1 C-20.64297197 -0.02472362 -10.39671302 -0.1050173 0 0 Z " fill="#656183" transform="translate(96,64)"/>
<path d="M0 0 C1.47968324 0.14049518 2.95874516 0.28754826 4.4375 0.4375 C5.67306641 0.55931641 5.67306641 0.55931641 6.93359375 0.68359375 C9 1 9 1 10 2 C9.94921875 3.99609375 9.94921875 3.99609375 9.6875 6.4375 C9.56955078 7.64212891 9.56955078 7.64212891 9.44921875 8.87109375 C9 11 9 11 7 13 C3.19090105 12.67582137 1.21627837 12.14418558 -2 10 C-2.44037987 5.94850518 -1.91518189 3.52515552 0 0 Z " fill="#DBC4EB" transform="translate(148,107)"/>
<path d="M0 0 C1.11002992 3.33008975 0.68516272 4.65983176 0 8 C0.33 8.66 0.66 9.32 1 10 C-0.6210103 10.69685498 -2.24696066 11.38222861 -3.875 12.0625 C-4.77992187 12.44535156 -5.68484375 12.82820313 -6.6171875 13.22265625 C-9 14 -9 14 -11 13 C-5.85714286 6.42857143 -5.85714286 6.42857143 -2 5 C-5.96933765 6.17275885 -8.72789044 7.51770999 -12 10 C-12.99 10 -13.98 10 -15 10 C-15.33 8.68 -15.66 7.36 -16 6 C-5.62642369 -0.88838269 -5.62642369 -0.88838269 0 0 Z " fill="#AF897B" transform="translate(125,73)"/>
<path d="M0 0 C1.125 5.75 1.125 5.75 0 8 C-2.50390625 8.6328125 -2.50390625 8.6328125 -5.5625 9.125 C-7.08037109 9.37636719 -7.08037109 9.37636719 -8.62890625 9.6328125 C-9.80259766 9.81457031 -9.80259766 9.81457031 -11 10 C-12.94566951 6.52452927 -13.07637127 4.87493656 -12 1 C-7.58774263 -0.47075246 -4.51718381 -1.36884358 0 0 Z " fill="#573D71" transform="translate(149,84)"/>
<path d="M0 0 C0.99 0 1.98 0 3 0 C3 1.32 3 2.64 3 4 C4.32 4.33 5.64 4.66 7 5 C6.34 7.31 5.68 9.62 5 12 C1.37 12 -2.26 12 -6 12 C-6 9.69 -6 7.38 -6 5 C-4.35 4.67 -2.7 4.34 -1 4 C-0.67 2.68 -0.34 1.36 0 0 Z " fill="#D3B6E8" transform="translate(54,114)"/>
<path d="M0 0 C1.6875 0.875 1.6875 0.875 2.6875 2.875 C2.72772391 5.2079866 2.73070247 7.54206666 2.6875 9.875 C-0.6125 10.205 -3.9125 10.535 -7.3125 10.875 C-9.3125 7.875 -9.3125 7.875 -9.3125 5.9375 C-7.52539004 2.2515857 -4.15097439 -0.22437699 0 0 Z " fill="#5A4173" transform="translate(55.3125,134.125)"/>
<path d="M0 0 C0 0.66 0 1.32 0 2 C-2.31 2.33 -4.62 2.66 -7 3 C-6.34 3.33 -5.68 3.66 -5 4 C-5 4.66 -5 5.32 -5 6 C-11.6 6.33 -18.2 6.66 -25 7 C-25.33 5.35 -25.66 3.7 -26 2 C-21.85897067 1.05416029 -17.79850926 0.70624983 -13.5625 0.4375 C-12.28503906 0.35371094 -11.00757812 0.26992187 -9.69140625 0.18359375 C-6.4519487 0.02247787 -3.24246874 -0.03508081 0 0 Z " fill="#A8BCC6" transform="translate(110,143)"/>
<path d="M0 0 C0 0.66 0 1.32 0 2 C-0.99 2.66 -1.98 3.32 -3 4 C3.435 3.505 3.435 3.505 10 3 C10 2.67 10 2.34 10 2 C16.435 1.505 16.435 1.505 23 1 C23 1.66 23 2.32 23 3 C24.65 3 26.3 3 28 3 C27.67 4.65 27.34 6.3 27 8 C26.505 6.02 26.505 6.02 26 4 C24.04320313 4.2165625 24.04320313 4.2165625 22.046875 4.4375 C12.66160997 5.44498827 3.44989684 6.34572793 -6 6 C-6 4.68 -6 3.36 -6 2 C-8.64 2.99 -11.28 3.98 -14 5 C-13.67 4.01 -13.34 3.02 -13 2 C-8.56971812 0.34950283 -4.70949382 -0.22973141 0 0 Z " fill="#3F3E52" transform="translate(65,65)"/>
<path d="M0 0 C0.66 0 1.32 0 2 0 C3.04173045 3.36890509 4.05456411 6.74584463 5.0625 10.125 C5.35705078 11.07632813 5.65160156 12.02765625 5.95507812 13.0078125 C7.43895725 18.03554412 8.50478939 21.81596115 7 27 C6.66291303 28.33238931 6.32891389 29.66556958 6 31 C4.98051483 27.52624889 3.9880912 24.04529893 3 20.5625 C2.71382812 19.58861328 2.42765625 18.61472656 2.1328125 17.61132812 C0.42346098 11.5268507 -0.31363273 6.31839279 0 0 Z " fill="#8E9EB8" transform="translate(60,106)"/>
<path d="M0 0 C2.34058637 2.12780579 3.70700306 4.11562221 5 7 C8.21852831 6.36934243 10.50801069 5.21979305 13.25 3.4375 C14.30960938 2.75494141 14.30960938 2.75494141 15.390625 2.05859375 C15.92171875 1.70925781 16.4528125 1.35992187 17 1 C17 4 17 4 14.75 6.375 C13.8425 7.24125 12.935 8.1075 12 9 C10.64444707 10.64864545 9.30368347 12.31003995 8 14 C5.45379062 13.6362558 4.31819607 13.42033309 2.734375 11.328125 C-0.54945055 4.3956044 -0.54945055 4.3956044 0 0 Z " fill="#B88069" transform="translate(93,110)"/>
<path d="M0 0 C0.99 0 1.98 0 3 0 C3 0.66 3 1.32 3 2 C4.32 1.67 5.64 1.34 7 1 C8.25984998 3.07504702 8.98608195 4.55462237 9.0625 7 C7.30432136 10.30951274 4.28752414 11.32635135 1 13 C-0.5625 11.1875 -0.5625 11.1875 -2 9 C-1.67 8.01 -1.34 7.02 -1 6 C-0.34 6 0.32 6 1 6 C0.67 4.02 0.34 2.04 0 0 Z " fill="#CCAAE7" transform="translate(134,98)"/>
<path d="M0 0 C-0.53400897 3.91606575 -1.19669467 6.39338934 -3 10 C-5.64 8.68 -8.28 7.36 -11 6 C-10.8125 3.625 -10.8125 3.625 -10 1 C-6.41025704 -1.19373181 -3.97935131 -1.13695752 0 0 Z " fill="#53396D" transform="translate(48,101)"/>
<path d="M0 0 C2.7915438 4.18731571 3.81283964 8.62780599 5.1875 13.4375 C5.47302734 14.39205078 5.75855469 15.34660156 6.05273438 16.33007812 C6.31763672 17.25111328 6.58253906 18.17214844 6.85546875 19.12109375 C7.09934326 19.9608374 7.34321777 20.80058105 7.59448242 21.66577148 C8.02479333 24.14271464 7.79591328 25.63945925 7 28 C6.34 28 5.68 28 5 28 C3.95876278 24.46401043 2.94571883 20.92053228 1.9375 17.375 C1.64294922 16.37597656 1.34839844 15.37695312 1.04492188 14.34765625 C-1.54098252 5.16009004 -1.54098252 5.16009004 0 0 Z " fill="#A6C1D2" transform="translate(67,127)"/>
<path d="M0 0 C0.66 1.32 1.32 2.64 2 4 C3.65 3.67 5.3 3.34 7 3 C6.01 4.485 6.01 4.485 5 6 C5.19266036 8.53713853 5.19266036 8.53713853 5.875 11.1875 C6.07867187 12.08855469 6.28234375 12.98960938 6.4921875 13.91796875 C6.65976563 14.60503906 6.82734375 15.29210937 7 16 C5.35 16.33 3.7 16.66 2 17 C1.27535411 14.73323578 0.57007936 12.46332436 -0.125 10.1875 C-0.33253906 9.54490234 -0.54007812 8.90230469 -0.75390625 8.24023438 C-1.3203125 6.35546875 -1.3203125 6.35546875 -2 3 C-1.34 2.01 -0.68 1.02 0 0 Z " fill="#6E627F" transform="translate(120,100)"/>
<path d="M0 0 C0.66 0.33 1.32 0.66 2 1 C2.875 4.3125 2.875 4.3125 3 8 C0.95812771 11.23296447 -0.47564953 11.87662342 -4.1875 12.75 C-8.47058201 13.03085784 -12.71014733 13.08754801 -17 13 C-14.1004339 11.34123921 -12.08364791 10.7638784 -8.75 10.875 C-6.89375 10.936875 -6.89375 10.936875 -5 11 C-5 10.34 -5 9.68 -5 9 C-5.59167969 9.08378906 -6.18335938 9.16757813 -6.79296875 9.25390625 C-11.09939457 9.80889424 -14.75552644 10.23226652 -19 9 C-19 8.67 -19 8.34 -19 8 C-12.30386804 7.202163 -5.74233419 6.87089147 1 7 C0.67 4.69 0.34 2.38 0 0 Z " fill="#4F556D" transform="translate(139,157)"/>
<path d="M0 0 C0.99 0 1.98 0 3 0 C3.16435547 0.92619141 3.16435547 0.92619141 3.33203125 1.87109375 C4.4377266 7.77712501 5.95361435 13.35197559 8 19 C7.34 19 6.68 19 6 19 C6 20.65 6 22.3 6 24 C4.14143859 21.21215788 3.47381305 19.53739935 2.67578125 16.3671875 C2.45212891 15.47902344 2.22847656 14.59085938 1.99804688 13.67578125 C1.65870117 12.28939453 1.65870117 12.28939453 1.3125 10.875 C1.07466797 9.94300781 0.83683594 9.01101562 0.59179688 8.05078125 C0.37201172 7.16519531 0.15222656 6.27960938 -0.07421875 5.3671875 C-0.27619873 4.55362793 -0.47817871 3.74006836 -0.6862793 2.90185547 C-0.78980713 2.27424316 -0.89333496 1.64663086 -1 1 C-0.67 0.67 -0.34 0.34 0 0 Z " fill="#6C7994" transform="translate(54,87)"/>
<path d="M0 0 C0.66 0 1.32 0 2 0 C2.433125 1.216875 2.86625 2.43375 3.3125 3.6875 C4.56201629 7.03739367 6.03123567 9.99997817 8 13 C7.401875 12.814375 6.80375 12.62875 6.1875 12.4375 C3.83591238 11.77906313 3.83591238 11.77906313 1 13 C-1.33299825 13.03954234 -3.66708189 13.04401732 -6 13 C-6 12.67 -6 12.34 -6 12 C-4.02 12 -2.04 12 0 12 C-0.66 9.69 -1.32 7.38 -2 5 C-3.98 5 -5.96 5 -8 5 C-8 4.67 -8 4.34 -8 4 C-5.36 4 -2.72 4 0 4 C0 2.68 0 1.36 0 0 Z " fill="#A9A7AC" transform="translate(92,69)"/>
<path d="M0 0 C1.32 0.33 2.64 0.66 4 1 C3.67 3.31 3.34 5.62 3 8 C2.34 8 1.68 8 1 8 C0.67 9.98 0.34 11.96 0 14 C-1.32 13.67 -2.64 13.34 -4 13 C-4.49230769 5.73846154 -4.49230769 5.73846154 -2 2 C-1.34 1.34 -0.68 0.68 0 0 Z " fill="#45305C" transform="translate(164,125)"/>
<path d="M0 0 C0.66 0.33 1.32 0.66 2 1 C1.67 1.33 1.34 1.66 1 2 C0.3162296 7.60691724 2.31256307 11.2729904 5 16 C7.16874252 15.49396008 8.99967627 15.00016187 11 14 C11 15.65 11 17.3 11 19 C8 20 8 20 6.02734375 19.07421875 C5.33769531 18.61660156 4.64804688 18.15898438 3.9375 17.6875 C3.24527344 17.23761719 2.55304688 16.78773437 1.83984375 16.32421875 C0 15 0 15 -2 13 C-2.265625 10.9765625 -2.265625 10.9765625 -2.25 8.625 C-2.25515625 7.85414062 -2.2603125 7.08328125 -2.265625 6.2890625 C-1.97688045 3.8007639 -1.24139229 2.15765802 0 0 Z " fill="#B3CBDE" transform="translate(93,107)"/>
<path d="M0 0 C5.94 0 11.88 0 18 0 C17.67 1.32 17.34 2.64 17 4 C17.52047863 6.61863896 17.52047863 6.61863896 18.4375 9.25 C18.72496094 10.14203125 19.01242188 11.0340625 19.30859375 11.953125 C19.65083984 12.96632813 19.65083984 12.96632813 20 14 C16.13892543 11.42595029 16.05680308 9.38979741 15 5 C13.35 4.67 11.7 4.34 10 4 C10 3.34 10 2.68 10 2 C7.03 2 4.06 2 1 2 C0.67 1.34 0.34 0.68 0 0 Z " fill="#7E708C" transform="translate(78,64)"/>
<path d="M0 0 C1.32 0 2.64 0 4 0 C3.25 6.75 3.25 6.75 1 9 C-0.9375 9 -0.9375 9 -3 8 C-4.75 4.9375 -4.75 4.9375 -6 2 C-3.525 2.495 -3.525 2.495 -1 3 C-0.67 2.01 -0.34 1.02 0 0 Z " fill="#F9F8F9" transform="translate(144,131)"/>
<path d="M0 0 C0.8971875 0.9590625 0.8971875 0.9590625 1.8125 1.9375 C3.90810337 4.20310389 3.90810337 4.20310389 7 5 C7 5.99 7 6.98 7 8 C6.01 8.33 5.02 8.66 4 9 C4 8.34 4 7.68 4 7 C-1.1103144 8.1454153 -5.37234081 9.45478745 -10 12 C-8.92327237 8.6501807 -7.44282685 7.55193108 -4.4375 6 C-0.9037934 4.40754326 -0.9037934 4.40754326 -0.0625 1.75 C-0.041875 1.1725 -0.02125 0.595 0 0 Z " fill="#D7AA4A" transform="translate(121,66)"/>
<path d="M0 0 C1.65 0 3.3 0 5 0 C5.33 0.66 5.66 1.32 6 2 C6.33 1.34 6.66 0.68 7 0 C7.66 0 8.32 0 9 0 C9.33 1.98 9.66 3.96 10 6 C6.7 6 3.4 6 0 6 C0 4.02 0 2.04 0 0 Z " fill="#6B4C87" transform="translate(131,116)"/>
<path d="M0 0 C5.61826707 0.61771523 7.7315388 3.35153994 11.26171875 7.5 C13.68766011 10.98899431 14.39244831 13.82308213 15 18 C12.07811678 15.3703051 10.02701452 12.35505851 8 9 C8 8.01 8 7.02 8 6 C5.525 5.01 5.525 5.01 3 4 C2.34 4.99 1.68 5.98 1 7 C1.20625 6.21625 1.4125 5.4325 1.625 4.625 C1.74875 3.75875 1.8725 2.8925 2 2 C1.34 1.34 0.68 0.68 0 0 Z " fill="#928483" transform="translate(131,30)"/>
<path d="M0 0 C0 0.99 0 1.98 0 3 C-6.06696699 3.77040851 -11.88514973 4.09706112 -18 4 C-18 3.34 -18 2.68 -18 2 C-15.5089215 0.75446075 -13.46200042 0.6740271 -10.6875 0.4375 C-9.27017578 0.31181641 -9.27017578 0.31181641 -7.82421875 0.18359375 C-5.20564723 0.01336849 -2.62304081 -0.03344496 0 0 Z " fill="#7792A7" transform="translate(107,168)"/>
<path d="M0 0 C2.69282475 4.03923713 3.13300939 6.95536152 3.0625 11.75 C3.05347656 12.54921875 3.04445313 13.3484375 3.03515625 14.171875 C3.01775391 15.07679688 3.01775391 15.07679688 3 16 C0.69 15.67 -1.62 15.34 -4 15 C-4 13.35 -4 11.7 -4 10 C-2.68 10 -1.36 10 0 10 C0 6.7 0 3.4 0 0 Z " fill="#A282C6" transform="translate(70,148)"/>
<path d="M0 0 C4.29 0.33 8.58 0.66 13 1 C13 2.65 13 4.3 13 6 C8.39146203 5.27991594 4.32762591 3.68704061 0 2 C0 1.34 0 0.68 0 0 Z " fill="#F46379" transform="translate(158,56)"/>
<path d="M0 0 C0.33 0.99 0.66 1.98 1 3 C-4.94 3.33 -10.88 3.66 -17 4 C-17 3.34 -17 2.68 -17 2 C-11.19233704 0.4943096 -6.0018137 -0.21824777 0 0 Z " fill="#E0EDF0" transform="translate(103,141)"/>
<path d="M0 0 C1.41554787 2.61331914 2.58131312 5.30718129 3.6875 8.0625 C3.95949219 8.73410156 4.23148438 9.40570313 4.51171875 10.09765625 C5 12 5 12 4 15 C1 9.375 1 9.375 1 6 C0.34 6 -0.32 6 -1 6 C-0.67 8.31 -0.34 10.62 0 13 C-0.66 12.67 -1.32 12.34 -2 12 C-2 9.36 -2 6.72 -2 4 C-3.98 4.66 -5.96 5.32 -8 6 C-6.75 4.5 -6.75 4.5 -5 3 C-3.68 3 -2.36 3 -1 3 C-0.67 2.01 -0.34 1.02 0 0 Z " fill="#5C4033" transform="translate(120,49)"/>
<path d="M0 0 C1.2065625 0.0309375 1.2065625 0.0309375 2.4375 0.0625 C3.0625 2.4375 3.0625 2.4375 3.4375 5.0625 C2.7775 5.7225 2.1175 6.3825 1.4375 7.0625 C-0.6875 6.6875 -0.6875 6.6875 -2.5625 6.0625 C-2.94468767 4.40635343 -3.27645102 2.73792976 -3.5625 1.0625 C-2.5625 0.0625 -2.5625 0.0625 0 0 Z " fill="#95ABBA" transform="translate(69.5625,81.9375)"/>
<path d="M0 0 C4.62962963 6.94444444 4.62962963 6.94444444 5 10 C4.0625 12.25 4.0625 12.25 3 14 C1.35 13.67 -0.3 13.34 -2 13 C-1.34 12.34 -0.68 11.68 0 11 C0.24315656 8.33050591 0.24315656 8.33050591 0.125 5.375 C0.10695312 4.37210937 0.08890625 3.36921875 0.0703125 2.3359375 C0.04710937 1.56507812 0.02390625 0.79421875 0 0 Z " fill="#95A0C0" transform="translate(51,71)"/>
<path d="M0 0 C0.99 0.33 1.98 0.66 3 1 C2.01 1.66 1.02 2.32 0 3 C-0.969375 3.825 -1.93875 4.65 -2.9375 5.5 C-6.3071541 8.25073804 -8.92309514 9.64103171 -13 11 C-11.74543785 7.23631354 -10.30895631 6.56414558 -7.0625 4.375 C-6.16660156 3.76398438 -5.27070312 3.15296875 -4.34765625 2.5234375 C-2 1 -2 1 0 0 Z " fill="#E8C09D" transform="translate(121,77)"/>
<path d="M0 0 C0.99 0 1.98 0 3 0 C3 1.32 3 2.64 3 4 C4.32 4.33 5.64 4.66 7 5 C6.34 7.31 5.68 9.62 5 12 C2.03 12 -0.94 12 -4 12 C-3.67 11.34 -3.34 10.68 -3 10 C-0.69 10.33 1.62 10.66 4 11 C4.33 9.02 4.66 7.04 5 5 C3.35 4.67 1.7 4.34 0 4 C0 2.68 0 1.36 0 0 Z " fill="#DBC7EA" transform="translate(54,114)"/>
<path d="M0 0 C0.66 0.33 1.32 0.66 2 1 C-0.77280706 4.08089673 -3.06326356 5.68775452 -7 7 C-6.34 7.66 -5.68 8.32 -5 9 C-6.32 9.33 -7.64 9.66 -9 10 C-9.33 8.68 -9.66 7.36 -10 6 C-8.3811004 4.96951963 -6.75467511 3.95085322 -5.125 2.9375 C-4.22007813 2.36902344 -3.31515625 1.80054687 -2.3828125 1.21484375 C-1.20332031 0.61349609 -1.20332031 0.61349609 0 0 Z " fill="#785E61" transform="translate(119,73)"/>
<path d="M0 0 C0.33 1.65 0.66 3.3 1 5 C-2 7 -2 7 -5 7 C-5.33 5.68 -5.66 4.36 -6 3 C-2.25 0 -2.25 0 0 0 Z " fill="#E0D8E2" transform="translate(127,97)"/>
<path d="M0 0 C0.33 0.66 0.66 1.32 1 2 C1.99 2 2.98 2 4 2 C3.67 3.98 3.34 5.96 3 8 C1.35 7.67 -0.3 7.34 -2 7 C-1.125 1.125 -1.125 1.125 0 0 Z " fill="#BF94E4" transform="translate(55,117)"/>
<path d="M0 0 C0.66 0.33 1.32 0.66 2 1 C2.99 0.67 3.98 0.34 5 0 C5.33 1.65 5.66 3.3 6 5 C4.1875 6.0625 4.1875 6.0625 2 7 C1.01 6.67 0.02 6.34 -1 6 C-0.67 4.02 -0.34 2.04 0 0 Z " fill="#C8A3E6" transform="translate(148,111)"/>
<path d="M0 0 C0.66 0 1.32 0 2 0 C2.125 2.875 2.125 2.875 2 6 C1.34 6.66 0.68 7.32 0 8 C-5.45454545 7.54545455 -5.45454545 7.54545455 -8 5 C-6.576875 4.87625 -6.576875 4.87625 -5.125 4.75 C-1.89538209 4.34925077 -1.89538209 4.34925077 -0.625 1.9375 C-0.41875 1.298125 -0.2125 0.65875 0 0 Z " fill="#D2B5E9" transform="translate(155,112)"/>
<path d="M0 0 C0.66 0 1.32 0 2 0 C2.433125 1.216875 2.86625 2.43375 3.3125 3.6875 C4.56201629 7.03739367 6.03123567 9.99997817 8 13 C6.140625 12.73828125 6.140625 12.73828125 4 12 C2.734375 10.29296875 2.734375 10.29296875 1.75 8.1875 C1.41484375 7.50042969 1.0796875 6.81335938 0.734375 6.10546875 C0 4 0 4 0 0 Z " fill="#EBE6E9" transform="translate(92,69)"/>
<path d="M0 0 C0.33 0 0.66 0 1 0 C1 1.98 1 3.96 1 6 C1.928125 5.79375 2.85625 5.5875 3.8125 5.375 C7 5 7 5 10 7 C6.62182575 7.84454356 4.32534757 8.10844919 1 7 C1.33 8.65 1.66 10.3 2 12 C1.34 12 0.68 12 0 12 C-2.21538462 5.72307692 -2.21538462 5.72307692 -1.125 2.0625 C-0.75375 1.381875 -0.3825 0.70125 0 0 Z " fill="#A87ECD" transform="translate(130,116)"/>
<path d="M0 0 C0.99 0.33 1.98 0.66 3 1 C2.67 1.66 2.34 2.32 2 3 C1.34 3 0.68 3 0 3 C0 3.66 0 4.32 0 5 C-3.2491277 7.3208055 -6.05879291 8.43697042 -10 9 C-9 6 -9 6 -6.0625 4.3125 C-3 3 -3 3 -1 3 C-0.67 2.01 -0.34 1.02 0 0 Z " fill="#AD989D" transform="translate(121,73)"/>
<path d="M0 0 C0.391875 0.474375 0.78375 0.94875 1.1875 1.4375 C3.40808374 3.35179633 5.13375709 3.61266988 8 4 C8 4.33 8 4.66 8 5 C6.35 5 4.7 5 3 5 C2.67 6.65 2.34 8.3 2 10 C-0.77867692 7.22132308 -0.65193902 4.8286708 -1 1 C-0.67 0.67 -0.34 0.34 0 0 Z " fill="#B78BDE" transform="translate(127,111)"/>
<path d="M0 0 C0.66 0 1.32 0 2 0 C2.66 2.31 3.32 4.62 4 7 C2.35 7.33 0.7 7.66 -1 8 C-1.93065133 5.39417629 -2.14917407 4.35801776 -1.0625 1.75 C-0.711875 1.1725 -0.36125 0.595 0 0 Z " fill="#6E688B" transform="translate(123,109)"/>
<path d="M0 0 C2 3 2 3 1.7578125 5.04296875 C1.171875 7.02864583 0.5859375 9.01432292 0 11 C-0.33 10.01 -0.66 9.02 -1 8 C-1.66 8 -2.32 8 -3 8 C-3.1875 5.125 -3.1875 5.125 -3 2 C-2.01 1.34 -1.02 0.68 0 0 Z " fill="#5E5F7D" transform="translate(58,67)"/>
<path d="M0 0 C0.99 0 1.98 0 3 0 C3.66 3.3 4.32 6.6 5 10 C4.01 9.67 3.02 9.34 2 9 C2 8.01 2 7.02 2 6 C1.34 6 0.68 6 0 6 C-0.38218767 4.34385343 -0.71395102 2.67542976 -1 1 C-0.67 0.67 -0.34 0.34 0 0 Z " fill="#73889F" transform="translate(54,87)"/>
<path d="M0 0 C0.66 0.33 1.32 0.66 2 1 C-1.63 4.63 -5.26 8.26 -9 12 C-9.33 11.34 -9.66 10.68 -10 10 C-6.92118304 6.12948725 -3.99926986 2.97088618 0 0 Z " fill="#BA96D7" transform="translate(45,86)"/>
<path d="M0 0 C2.475 0.495 2.475 0.495 5 1 C4.6875 3.375 4.6875 3.375 4 6 C3.01 6.66 2.02 7.32 1 8 C0.67 5.36 0.34 2.72 0 0 Z " fill="#F6F2F7" transform="translate(127,83)"/>
<path d="M0 0 C0.5775 0.78375 1.155 1.5675 1.75 2.375 C3.87476433 4.85389172 5.09696889 5.74201985 8 7 C8.66 7.66 9.32 8.32 10 9 C9.625 11.125 9.625 11.125 9 13 C8.01 12.67 7.02 12.34 6 12 C6.66 12 7.32 12 8 12 C8 11.01 8 10.02 8 9 C7.38125 8.9175 6.7625 8.835 6.125 8.75 C4 8 4 8 2.75 5.9375 C2.37875 4.9784375 2.37875 4.9784375 2 4 C1.34 4 0.68 4 0 4 C0 2.68 0 1.36 0 0 Z " fill="#5C3F30" transform="translate(120,62)"/>
<path d="M0 0 C0.99 0 1.98 0 3 0 C2.125 7.75 2.125 7.75 1 10 C1.66 10.66 2.32 11.32 3 12 C2.01 12 1.02 12 0 12 C-0.66 10.35 -1.32 8.7 -2 7 C-1.01 6.67 -0.02 6.34 1 6 C0.67 4.02 0.34 2.04 0 0 Z " fill="#DAC5E9" transform="translate(134,98)"/>
<path d="M0 0 C0.433125 0.9590625 0.433125 0.9590625 0.875 1.9375 C1.82823451 4.15206079 1.82823451 4.15206079 4 5 C4.33 5.66 4.66 6.32 5 7 C3.02 7 1.04 7 -1 7 C-1.33 5.35 -1.66 3.7 -2 2 C-1.34 2 -0.68 2 0 2 C0 1.34 0 0.68 0 0 Z " fill="#C6A0E5" transform="translate(138,134)"/>
<path d="M0 0 C0.99 0.33 1.98 0.66 3 1 C5.9770575 1.793882 8.97602924 2.41200568 12 3 C12 3.33 12 3.66 12 4 C8.04 4 4.08 4 0 4 C0 2.68 0 1.36 0 0 Z " fill="#4A4E63" transform="translate(59,67)"/>
<path d="M0 0 C0.66 0 1.32 0 2 0 C3.11002992 3.33008975 2.68516272 4.65983176 2 8 C2.33 8.66 2.66 9.32 3 10 C2.01 10 1.02 10 0 10 C-0.33 9.01 -0.66 8.02 -1 7 C-0.34 7 0.32 7 1 7 C0.01 5.68 -0.98 4.36 -2 3 C-1.34 2.34 -0.68 1.68 0 1 C0 0.67 0 0.34 0 0 Z " fill="#805C5F" transform="translate(123,73)"/>
<path d="M0 0 C2.97 0.495 2.97 0.495 6 1 C6 1.99 6 2.98 6 4 C5.01 4.33 4.02 4.66 3 5 C3 4.34 3 3.68 3 3 C1.68 3 0.36 3 -1 3 C-0.67 2.01 -0.34 1.02 0 0 Z " fill="#CDA148" transform="translate(122,70)"/>
<path d="M0 0 C1.98 0 3.96 0 6 0 C5.67 1.32 5.34 2.64 5 4 C3.35 3.67 1.7 3.34 0 3 C0 2.01 0 1.02 0 0 Z " fill="#F87386" transform="translate(119,142)"/>
<path d="M0 0 C1.5 1.125 1.5 1.125 3 3 C3.1875 6.1875 3.1875 6.1875 3 9 C2.34 9 1.68 9 1 9 C-0.4783226 6.04335481 -0.06032783 3.25770263 0 0 Z " fill="#928584" transform="translate(152,63)"/>
<path d="M0 0 C1.98362069 2.91708924 1.9876191 4.12380904 1.625 7.75 C1.41875 8.8225 1.2125 9.895 1 11 C0.34 10.67 -0.32 10.34 -1 10 C-1 8.35 -1 6.7 -1 5 C-1.66 4.67 -2.32 4.34 -3 4 C-2.34 3.67 -1.68 3.34 -1 3 C-0.67 2.01 -0.34 1.02 0 0 Z " fill="#8B6891" transform="translate(128,92)"/>
<path d="M0 0 C0.99 0.66 1.98 1.32 3 2 C3 2.66 3 3.32 3 4 C3.66 4.33 4.32 4.66 5 5 C3.35 5 1.7 5 0 5 C0 4.34 0 3.68 0 3 C-0.66 3 -1.32 3 -2 3 C-1 1 -1 1 0 0 Z " fill="#7A6B80" transform="translate(95,80)"/>
</svg>
