<?xml version="1.0" encoding="UTF-8"?>
<svg xmlns="http://www.w3.org/2000/svg" xmlns:xlink="http://www.w3.org/1999/xlink" width="63px" height="63px" viewBox="0 0 63 63" version="1.1">
<g id="surface1">
<path style=" stroke:none;fill-rule:nonzero;fill:rgb(0%,0%,0%);fill-opacity:1;" d="M 31.507812 1.800781 C 17.875 1.800781 6.261719 10.582031 2.394531 22.683594 L 6.710938 22.683594 C 7.160156 21.488281 7.695312 20.335938 8.316406 19.230469 L 16.617188 19.230469 C 16.253906 20.359375 15.957031 21.515625 15.710938 22.683594 L 19.917969 22.683594 C 20.210938 21.507812 20.5625 20.351562 20.976562 19.230469 L 28.988281 19.230469 L 28.988281 22.683594 L 33.050781 22.683594 L 33.050781 19.230469 L 41.707031 19.230469 C 42.171875 20.351562 42.5625 21.507812 42.894531 22.683594 L 47.097656 22.683594 C 46.816406 21.515625 46.488281 20.363281 46.085938 19.230469 L 54.703125 19.230469 C 55.324219 20.335938 55.859375 21.488281 56.308594 22.683594 L 60.613281 22.683594 C 56.75 10.582031 45.144531 1.800781 31.507812 1.800781 Z M 37.636719 6.578125 C 43.320312 7.886719 48.285156 10.949219 51.875 15.171875 L 44.34375 15.171875 C 42.660156 11.917969 40.433594 8.980469 37.636719 6.578125 Z M 24.195312 6.878906 C 21.679688 9.214844 19.691406 12.042969 18.214844 15.171875 L 11.144531 15.171875 C 14.484375 11.246094 19.007812 8.320312 24.195312 6.878906 Z M 33.050781 8.183594 C 35.726562 10.015625 37.886719 12.433594 39.605469 15.171875 L 33.050781 15.171875 Z M 28.988281 8.210938 L 28.988281 15.171875 L 22.871094 15.171875 C 24.445312 12.425781 26.449219 10.015625 28.988281 8.210938 Z M 3.609375 26.609375 C 3.207031 26.609375 2.871094 26.699219 2.597656 26.890625 C 2.320312 27.082031 2.1875 27.316406 2.1875 27.589844 C 2.1875 27.792969 2.246094 28.074219 2.378906 28.441406 L 4.535156 34.640625 C 4.601562 34.824219 4.675781 35.035156 4.761719 35.257812 C 4.847656 35.480469 4.964844 35.675781 5.105469 35.847656 C 5.246094 36.015625 5.4375 36.144531 5.675781 36.246094 C 5.917969 36.34375 6.21875 36.390625 6.582031 36.390625 C 7.035156 36.390625 7.390625 36.308594 7.664062 36.144531 C 7.933594 35.980469 8.128906 35.808594 8.234375 35.609375 C 8.339844 35.414062 8.46875 35.109375 8.632812 34.695312 L 10.5625 29.257812 L 12.484375 34.722656 C 12.644531 35.125 12.773438 35.425781 12.875 35.617188 C 12.976562 35.8125 13.164062 35.992188 13.4375 36.152344 C 13.707031 36.3125 14.070312 36.390625 14.523438 36.390625 C 15 36.390625 15.375 36.3125 15.640625 36.144531 C 15.902344 35.976562 16.085938 35.792969 16.191406 35.582031 C 16.296875 35.375 16.417969 35.058594 16.5625 34.640625 L 18.71875 28.441406 C 18.855469 28.050781 18.917969 27.769531 18.917969 27.589844 C 18.917969 27.3125 18.78125 27.078125 18.503906 26.890625 C 18.226562 26.703125 17.894531 26.609375 17.496094 26.609375 C 17.097656 26.609375 16.792969 26.679688 16.582031 26.828125 C 16.371094 26.972656 16.226562 27.132812 16.144531 27.308594 C 16.066406 27.480469 15.984375 27.710938 15.902344 27.988281 L 14.378906 33.261719 L 12.675781 28.324219 C 12.515625 27.90625 12.386719 27.609375 12.285156 27.417969 C 12.183594 27.222656 11.988281 27.035156 11.714844 26.863281 C 11.441406 26.691406 11.058594 26.609375 10.5625 26.609375 C 10.078125 26.609375 9.699219 26.6875 9.410156 26.855469 C 9.125 27.019531 8.921875 27.214844 8.804688 27.425781 C 8.6875 27.636719 8.558594 27.933594 8.414062 28.324219 L 6.71875 33.261719 L 5.1875 27.949219 C 5.066406 27.546875 4.914062 27.226562 4.726562 26.980469 C 4.539062 26.734375 4.167969 26.609375 3.609375 26.609375 Z M 24.484375 26.609375 C 24.082031 26.609375 23.742188 26.699219 23.46875 26.890625 C 23.195312 27.082031 23.0625 27.316406 23.0625 27.589844 C 23.0625 27.792969 23.128906 28.074219 23.261719 28.441406 L 25.417969 34.640625 C 25.484375 34.824219 25.558594 35.035156 25.644531 35.257812 C 25.730469 35.480469 25.839844 35.675781 25.980469 35.847656 C 26.121094 36.015625 26.3125 36.144531 26.550781 36.246094 C 26.792969 36.34375 27.09375 36.390625 27.457031 36.390625 C 27.910156 36.390625 28.273438 36.308594 28.546875 36.144531 C 28.816406 35.980469 29.003906 35.808594 29.109375 35.609375 C 29.210938 35.414062 29.34375 35.109375 29.507812 34.695312 L 31.4375 29.257812 L 33.359375 34.722656 C 33.519531 35.125 33.644531 35.425781 33.75 35.617188 C 33.851562 35.8125 34.039062 35.992188 34.308594 36.152344 C 34.582031 36.3125 34.945312 36.390625 35.398438 36.390625 C 35.875 36.390625 36.25 36.3125 36.511719 36.144531 C 36.777344 35.976562 36.960938 35.792969 37.066406 35.582031 C 37.167969 35.375 37.292969 35.058594 37.4375 34.640625 L 39.59375 28.441406 C 39.726562 28.050781 39.792969 27.769531 39.792969 27.589844 C 39.792969 27.3125 39.652344 27.078125 39.378906 26.890625 C 39.101562 26.703125 38.769531 26.609375 38.371094 26.609375 C 37.972656 26.609375 37.664062 26.679688 37.457031 26.828125 C 37.246094 26.972656 37.101562 27.132812 37.019531 27.308594 C 36.941406 27.480469 36.855469 27.710938 36.777344 27.988281 L 35.253906 33.261719 L 33.550781 28.324219 C 33.390625 27.90625 33.261719 27.609375 33.160156 27.417969 C 33.058594 27.222656 32.871094 27.035156 32.597656 26.863281 C 32.324219 26.691406 31.941406 26.609375 31.445312 26.609375 C 30.960938 26.609375 30.570312 26.6875 30.285156 26.855469 C 30 27.019531 29.796875 27.214844 29.679688 27.425781 C 29.5625 27.636719 29.433594 27.933594 29.289062 28.324219 L 27.59375 33.261719 L 26.0625 27.949219 C 25.941406 27.546875 25.796875 27.226562 25.609375 26.980469 C 25.421875 26.734375 25.042969 26.609375 24.484375 26.609375 Z M 45.359375 26.609375 C 44.957031 26.609375 44.617188 26.699219 44.34375 26.890625 C 44.070312 27.082031 43.9375 27.316406 43.9375 27.589844 C 43.9375 27.792969 44.003906 28.074219 44.136719 28.441406 L 46.292969 34.640625 C 46.359375 34.824219 46.433594 35.035156 46.519531 35.257812 C 46.605469 35.480469 46.714844 35.675781 46.855469 35.847656 C 46.996094 36.015625 47.183594 36.144531 47.425781 36.246094 C 47.667969 36.34375 47.96875 36.390625 48.332031 36.390625 C 48.785156 36.390625 49.148438 36.308594 49.417969 36.144531 C 49.691406 35.980469 49.878906 35.808594 49.980469 35.609375 C 50.085938 35.414062 50.226562 35.109375 50.390625 34.695312 L 52.3125 29.257812 L 54.234375 34.722656 C 54.394531 35.125 54.519531 35.425781 54.621094 35.617188 C 54.726562 35.8125 54.914062 35.992188 55.183594 36.152344 C 55.457031 36.3125 55.820312 36.390625 56.273438 36.390625 C 56.75 36.390625 57.121094 36.3125 57.386719 36.144531 C 57.652344 35.976562 57.835938 35.792969 57.941406 35.582031 C 58.042969 35.375 58.164062 35.058594 58.3125 34.640625 L 60.46875 28.441406 C 60.601562 28.050781 60.667969 27.769531 60.667969 27.589844 C 60.667969 27.3125 60.539062 27.078125 60.261719 26.890625 C 59.984375 26.703125 59.640625 26.609375 59.246094 26.609375 C 58.847656 26.609375 58.539062 26.679688 58.328125 26.828125 C 58.121094 26.972656 57.976562 27.132812 57.894531 27.308594 C 57.8125 27.480469 57.730469 27.710938 57.648438 27.988281 L 56.136719 33.261719 L 54.421875 28.324219 C 54.265625 27.90625 54.132812 27.609375 54.035156 27.417969 C 53.933594 27.222656 53.746094 27.035156 53.472656 26.863281 C 53.195312 26.691406 52.816406 26.609375 52.320312 26.609375 C 51.835938 26.609375 51.445312 26.6875 51.160156 26.855469 C 50.875 27.019531 50.671875 27.214844 50.554688 27.425781 C 50.433594 27.636719 50.304688 27.933594 50.164062 28.324219 L 48.46875 33.261719 L 46.945312 27.949219 C 46.824219 27.546875 46.671875 27.226562 46.484375 26.980469 C 46.296875 26.734375 45.917969 26.609375 45.359375 26.609375 Z M 2.242188 39.78125 C 5.929688 52.15625 17.671875 61.199219 31.507812 61.199219 C 45.347656 61.199219 57.089844 52.15625 60.777344 39.78125 L 56.488281 39.78125 C 56.082031 40.945312 55.59375 42.074219 55.019531 43.160156 L 46.320312 43.160156 C 46.691406 42.054688 46.996094 40.921875 47.253906 39.78125 L 43.113281 39.78125 C 42.820312 40.933594 42.476562 42.066406 42.050781 43.160156 L 33.050781 43.160156 L 33.050781 39.78125 L 28.988281 39.78125 L 28.988281 43.160156 L 20.769531 43.160156 C 20.394531 42.070312 20.074219 40.9375 19.808594 39.78125 L 15.640625 39.78125 C 15.871094 40.925781 16.15625 42.054688 16.480469 43.160156 L 7.996094 43.160156 C 7.425781 42.074219 6.929688 40.945312 6.519531 39.78125 Z M 10.664062 47.222656 L 17.941406 47.222656 C 19.425781 50.65625 21.394531 53.726562 23.933594 56.058594 C 18.59375 54.515625 13.992188 51.378906 10.664062 47.222656 Z M 22.464844 47.222656 L 28.988281 47.222656 L 28.988281 54.808594 C 26.351562 53.136719 24.148438 50.46875 22.464844 47.222656 Z M 33.050781 47.222656 L 40.03125 47.222656 C 38.257812 50.183594 35.953125 52.746094 33.050781 54.617188 Z M 44.699219 47.222656 L 52.355469 47.222656 C 48.691406 51.800781 43.472656 55.136719 37.4375 56.476562 C 40.535156 53.972656 42.941406 50.78125 44.699219 47.222656 Z M 44.699219 47.222656 "/>
</g>
</svg>
